<svg width="2475" height="2475" xmlns="http://www.w3.org/2000/svg" xmlns:xlink="http://www.w3.org/1999/xlink" xml:space="preserve" overflow="hidden"><defs><clipPath id="clip0"><rect x="963" y="0" width="2475" height="2475"/></clipPath></defs><g clip-path="url(#clip0)" transform="translate(-963 0)"><rect x="963" y="0" width="2475" height="2475" fill="#FFFFFF"/><path d="M793.457 0.0436607C773.464 0.815 754.583 11.694 737.479 26.3498 739.211 379.373 556.027 739.505 459.967 1037.44 462.175 1256.82 435.045 1476.2 412.362 1581.84 415.372 1642.86 197.907 1837.17 0 1940.84L216.386 2415C273.395 2324.13 491.208 2010.55 612.315 1919.89 577.845 1918.08 560.405 1928.42 537.638 1903 589.157 1890.74 809.508 1880.66 861.548 1637.65 863.622 1521.09 859.661 1314.95 859.461 1240.99 849.482 1234.57 860.021 1244.82 842.57 1225 857.831 1191.23 863.429 1119.53 824.79 1009.96 841.533 947.308 848.909 892.638 834.569 815.35 845.534 761.441 860.318 735.799 843.459 638.517 858.573 621.041 844.909 634.351 858.573 614.525 861.24 588.015 859.61 507.892 859.462 479.456 851.313 456.352 813.793 415.901 783.006 454.575 779.006 516.926 769.935 641.015 707.44 759.368 693.512 794.468 673.773 936.18 588.313 1037.5 582.831 1038.39 684.146 868.794 674.547 764.699 713.515 704.867 765.194 587.846 762.559 432.36 797.824 411.034 833.203 407.163 856.795 459.019 859.017 393.262 856.054 246.197 856.795 195.991 829.087 163.557 792.754 167.239 778.561 179.107 738.704 315.656 646.51 748.832 536.75 953.973 661.657 602.973 720.002 389.243 757.225 161.336 803.157 139.565 838.537 152.725 857.684 182.662 855.494 125.514 863.245 47.2558 856.102 34.3848 834.553 8.60899 813.449-0.727678 793.457 0.0436607ZM940.543 0.0436607C920.551-0.727678 899.446 8.60899 877.898 34.3848 870.755 47.2558 878.506 125.514 876.316 182.662 895.463 152.725 930.843 139.565 976.775 161.336 1014 389.243 1072.34 602.973 1197.25 953.973 1087.49 748.832 995.296 315.656 955.438 179.107 941.246 167.239 904.913 163.557 877.205 195.991 877.946 246.197 874.983 393.262 877.205 459.019 900.796 407.163 936.176 411.034 971.44 432.36 968.806 587.846 1020.48 704.867 1059.45 764.699 1049.85 868.794 1151.17 1038.39 1145.69 1037.5 1060.23 936.18 1040.49 794.468 1026.56 759.368 964.065 641.015 954.994 516.926 950.993 454.575 920.207 415.901 882.687 456.352 874.538 479.456 874.389 507.892 872.76 588.015 875.427 614.525 889.091 634.351 875.427 621.041 890.54 638.517 873.682 735.799 888.466 761.441 899.431 815.35 885.091 892.638 892.466 947.308 909.21 1009.96 870.571 1119.53 876.169 1191.23 891.43 1225 873.979 1244.82 884.518 1234.57 874.539 1240.99 874.339 1314.95 870.378 1521.09 872.452 1637.65 924.492 1880.66 1144.84 1890.74 1196.36 1903 1173.59 1928.42 1156.15 1918.08 1121.68 1919.89 1242.79 2010.55 1460.6 2324.13 1517.61 2415L1734 1940.84C1536.09 1837.17 1318.63 1642.86 1321.64 1581.84 1298.95 1476.2 1271.82 1256.82 1274.03 1037.44 1177.97 739.505 994.789 379.373 996.521 26.3498 979.418 11.694 960.536 0.815 940.543 0.0436607Z" fill-rule="evenodd" transform="matrix(-1 0 0 1 3067 29.9999)"/></g></svg>